<svg width="32" height="33" viewBox="0 0 32 33" fill="none" xmlns="http://www.w3.org/2000/svg">
<g clip-path="url(#clip0_592_141989)">
<path d="M8.66681 16.7273C8.66681 14.2606 9.90014 12.0606 11.7668 10.7273C12.4668 10.2606 13.5335 10.1606 14.0001 10.7273C14.6335 11.5606 13.5001 12.7273 14.0001 13.3939C15.3001 14.9939 18.0668 11.8273 21.3335 13.3939C23.6668 14.5606 23.3335 17.6273 23.0668 18.7273C22.2001 21.7939 19.3668 24.0606 16.0001 24.0606C11.9335 24.0606 8.66681 20.7939 8.66681 16.7273V16.7273Z" stroke="black" stroke-opacity="0.9" stroke-width="1.2" stroke-miterlimit="10" stroke-linecap="square"/>
<path d="M19.3332 18.0607C20.0696 18.0607 20.6665 17.4638 20.6665 16.7274C20.6665 15.991 20.0696 15.394 19.3332 15.394C18.5968 15.394 17.9999 15.991 17.9999 16.7274C17.9999 17.4638 18.5968 18.0607 19.3332 18.0607Z" stroke="black" stroke-opacity="0.9" stroke-width="1.2" stroke-miterlimit="10" stroke-linecap="square"/>
<path d="M11.6668 18.0605C12.2191 18.0605 12.6668 17.6128 12.6668 17.0605C12.6668 16.5083 12.2191 16.0605 11.6668 16.0605C11.1145 16.0605 10.6668 16.5083 10.6668 17.0605C10.6668 17.6128 11.1145 18.0605 11.6668 18.0605Z" fill="black" fill-opacity="0.9"/>
<path d="M13.3328 21.394C13.8851 21.394 14.3328 20.9463 14.3328 20.394C14.3328 19.8418 13.8851 19.394 13.3328 19.394C12.7805 19.394 12.3328 19.8418 12.3328 20.394C12.3328 20.9463 12.7805 21.394 13.3328 21.394Z" fill="black" fill-opacity="0.9"/>
<path d="M16.9998 22.727C17.5521 22.727 17.9998 22.2793 17.9998 21.7271C17.9998 21.1748 17.5521 20.7271 16.9998 20.7271C16.4475 20.7271 15.9998 21.1748 15.9998 21.7271C15.9998 22.2793 16.4475 22.727 16.9998 22.727Z" fill="black" fill-opacity="0.9"/>
</g>
<defs>
<clipPath id="clip0_592_141989">
<rect width="16" height="16" fill="white" transform="translate(8 8.72705)"/>
</clipPath>
</defs>
</svg>
