<svg width="32" height="33" viewBox="0 0 32 33" fill="none" xmlns="http://www.w3.org/2000/svg">
<path fill-rule="evenodd" clip-rule="evenodd" d="M12.4651 10.3936H16.9302V11.5098L15.2558 11.5098V12.3936L20.4 12.3936V14.0602L22 14.0602V16.5332H22.8837V14.8587H24V19.3238H22.8837V17.6494H22V20.7269L20.4 20.7269V22.3936L13.5029 22.3936L10 19.8936L10 16.9052H9.11628V18.5796H8V14.1145H9.11628V15.7889H10L10 12.3936L14.1395 12.3936V11.5098L12.4651 11.5098V10.3936ZM19.2 19.4769H20.8V15.3102L19.2 15.3102V13.6436L11.2 13.6436L11.2 19.3758L14 21.1436L19.2 21.1436V19.4769Z" fill="black" fill-opacity="0.9"/>
</svg>
