<svg width="32" height="33" viewBox="0 0 32 33" fill="none" xmlns="http://www.w3.org/2000/svg">
<path fill-rule="evenodd" clip-rule="evenodd" d="M16.8692 9.76316H11.2827C10.7784 9.76316 10.3696 10.172 10.3696 10.6762V19.3865C10.3696 19.8907 10.7784 20.2995 11.2827 20.2995H16.8692C17.3735 20.2995 17.7823 19.8907 17.7823 19.3865V10.6762C17.7823 10.172 17.3735 9.76316 16.8692 9.76316ZM11.2827 8.39355C10.022 8.39355 9 9.41554 9 10.6762V19.3865C9 20.6472 10.022 21.6691 11.2827 21.6691H16.8692C18.1299 21.6691 19.1519 20.6472 19.1519 19.3865V10.6762C19.1519 9.41555 18.1299 8.39355 16.8692 8.39355H11.2827Z" fill="black" fill-opacity="0.9"/>
<path fill-rule="evenodd" clip-rule="evenodd" d="M19.1519 23.916L9 23.916V22.5464L19.1519 22.5464V23.916Z" fill="black" fill-opacity="0.9"/>
<path fill-rule="evenodd" clip-rule="evenodd" d="M21.198 10.252L22.4818 11.5357C23.0383 12.0922 23.3509 12.847 23.3509 13.634V18.7406C23.3509 19.6579 22.6073 20.4015 21.69 20.4015C20.7726 20.4015 20.029 19.6579 20.029 18.7406V15.8121C20.029 15.3278 19.6363 14.9351 19.152 14.9351V13.5655C20.3928 13.5655 21.3986 14.5714 21.3986 15.8121V18.7406C21.3986 18.9015 21.5291 19.0319 21.69 19.0319C21.8509 19.0319 21.9813 18.9015 21.9813 18.7406V13.634C21.9813 13.2102 21.813 12.8038 21.5133 12.5041L20.2296 11.2204L21.198 10.252Z" fill="black" fill-opacity="0.9"/>
<path fill-rule="evenodd" clip-rule="evenodd" d="M14.0759 16.3947C14.3874 16.3947 14.6586 16.1371 14.6586 15.7964C14.6586 15.4714 14.5505 15.148 14.0856 14.5027C14.0636 14.5371 14.0417 14.5717 14.0201 14.6066C13.8439 14.8912 13.7017 15.1617 13.6073 15.3958C13.5606 15.5115 13.5303 15.6068 13.5125 15.6811C13.5037 15.7175 13.4987 15.7457 13.496 15.7661C13.4946 15.7761 13.4939 15.7837 13.4936 15.7889C13.4932 15.7939 13.4932 15.7964 13.4932 15.7964C13.4932 16.1371 13.7643 16.3947 14.0759 16.3947ZM13.1935 13.3763C12.6454 14.1518 12.1236 15.1082 12.1236 15.7964C12.1236 16.8832 12.9977 17.7643 14.0759 17.7643C15.1541 17.7643 16.0282 16.8832 16.0282 15.7964C16.0282 14.9895 15.666 14.2961 14.9495 13.3661C14.7009 13.0434 14.4096 12.6922 14.0759 12.2979C13.8372 12.5385 13.5109 12.927 13.1935 13.3763Z" fill="black" fill-opacity="0.9"/>
</svg>
