<svg width="32" height="33" viewBox="0 0 32 33" fill="none" xmlns="http://www.w3.org/2000/svg">
<g clip-path="url(#clip0_592_142044)">
<path fill-rule="evenodd" clip-rule="evenodd" d="M10.3431 10.6357C8.89543 12.0835 8 14.0835 8 16.2926C8 18.5017 8.89543 20.5017 10.3431 21.9495L11.3937 20.8989C10.2149 19.72 9.48571 18.0915 9.48571 16.2926C9.48571 14.4937 10.2149 12.8652 11.3937 11.6863L10.3431 10.6357ZM20.6063 11.6863L21.6569 10.6357C23.1046 12.0835 24 14.0835 24 16.2926C24 18.5017 23.1046 20.5017 21.6569 21.9494L20.6063 20.8989C21.7852 19.72 22.5143 18.0915 22.5143 16.2926C22.5143 14.4937 21.7852 12.8652 20.6063 11.6863ZM11.9594 12.252C10.9253 13.2861 10.2857 14.7146 10.2857 16.2926C10.2857 17.8706 10.9253 19.2991 11.9594 20.3332L13.01 19.2826C12.2447 18.5174 11.7714 17.4603 11.7714 16.2926C11.7714 15.1249 12.2447 14.0678 13.0099 13.3025L11.9594 12.252ZM18.9901 13.3025L20.0406 12.252C21.0747 13.2861 21.7143 14.7146 21.7143 16.2926C21.7143 17.8705 21.0747 19.2991 20.0406 20.3332L18.9901 19.2826C19.7553 18.5174 20.2286 17.4603 20.2286 16.2926C20.2286 15.1249 19.7553 14.0678 18.9901 13.3025Z" fill="black" fill-opacity="0.9"/>
<path fill-rule="evenodd" clip-rule="evenodd" d="M16 18.2352C17.073 18.2352 17.9428 17.3654 17.9428 16.2923C17.9428 15.2193 17.073 14.3495 16 14.3495C14.927 14.3495 14.0571 15.2193 14.0571 16.2923C14.0571 17.3654 14.927 18.2352 16 18.2352ZM16 19.7209C17.8935 19.7209 19.4286 18.1859 19.4286 16.2923C19.4286 14.3988 17.8935 12.8638 16 12.8638C14.1064 12.8638 12.5714 14.3988 12.5714 16.2923C12.5714 18.1859 14.1064 19.7209 16 19.7209Z" fill="black" fill-opacity="0.9"/>
</g>
<defs>
<clipPath id="clip0_592_142044">
<rect width="16" height="16" fill="white" transform="translate(8 8.34277)"/>
</clipPath>
</defs>
</svg>
