<svg width="32" height="33" viewBox="0 0 32 33" fill="none" xmlns="http://www.w3.org/2000/svg">
<g opacity="0.8">
<path fill-rule="evenodd" clip-rule="evenodd" d="M16 23.0936C19.7003 23.0936 22.7 20.0939 22.7 16.3936C22.7 12.6932 19.7003 9.69355 16 9.69355C12.2997 9.69355 9.3 12.6932 9.3 16.3936C9.3 20.0939 12.2997 23.0936 16 23.0936ZM16 24.3936C20.4183 24.3936 24 20.8118 24 16.3936C24 11.9753 20.4183 8.39355 16 8.39355C11.5817 8.39355 8 11.9753 8 16.3936C8 20.8118 11.5817 24.3936 16 24.3936Z" fill="black" fill-opacity="0.9"/>
<path fill-rule="evenodd" clip-rule="evenodd" d="M13.4247 15.7436V13.3936H12V19.3936H13.4247V17.0436H15.2877V19.3936H16.7123V17.0436H18.5753V19.3936H20V13.3936H18.5753V15.7436H16.7123V13.3936H15.2877V15.7436H13.4247Z" fill="black" fill-opacity="0.9"/>
</g>
</svg>
