<svg width="33" height="33" viewBox="0 0 33 33" fill="none" xmlns="http://www.w3.org/2000/svg">
<path fill-rule="evenodd" clip-rule="evenodd" d="M16.5869 24.6781C20.8942 24.6781 24.3859 21.1863 24.3859 16.8791C24.3859 12.5718 20.8942 9.08008 16.5869 9.08008C12.2796 9.08008 8.7879 12.5718 8.7879 16.8791C8.7879 21.1863 12.2796 24.6781 16.5869 24.6781ZM16.5869 23.4781C12.9424 23.4781 9.9879 20.5236 9.9879 16.8791C9.9879 13.2346 12.9424 10.2801 16.5869 10.2801C20.2314 10.2801 23.1859 13.2346 23.1859 16.8791C23.1859 20.5236 20.2314 23.4781 16.5869 23.4781ZM14.5909 18.3651L13.9409 19.2651C14.4203 19.777 15.0978 20.1569 15.9949 20.2813V21.2297H17.1949V20.2933C18.6092 20.1196 19.2309 19.2561 19.2309 18.2651C19.2309 16.8151 17.9209 16.4751 16.8209 16.1951L16.8112 16.1926C16.0253 15.9937 15.3509 15.8229 15.3509 15.3051C15.3509 14.8051 15.7909 14.4751 16.4809 14.4751C17.1809 14.4751 17.8909 14.7151 18.4109 15.2351L19.0809 14.3651C18.588 13.888 17.9559 13.5817 17.1949 13.4761V12.6487H15.9949V13.4839C14.8671 13.6793 14.1509 14.4399 14.1509 15.3851C14.1509 16.7951 15.4309 17.1151 16.5209 17.3851L16.5372 17.3893C17.3404 17.5975 18.0409 17.7791 18.0409 18.3751C18.0409 18.8151 17.6609 19.2851 16.7009 19.2851C15.7709 19.2851 15.0509 18.8551 14.5909 18.3651Z" fill="black" fill-opacity="0.9"/>
</svg>
